<svg width="15" height="3" viewBox="0 0 15 3" fill="none" xmlns="http://www.w3.org/2000/svg">
<path d="M1.50376 3C1.09273 3 0.739349 2.85464 0.443609 2.56391C0.14787 2.26817 0 1.91228 0 1.49624C0 1.08521 0.14787 0.734336 0.443609 0.443609C0.739349 0.14787 1.09273 0 1.50376 0C1.91479 0 2.26817 0.14787 2.56391 0.443609C2.85965 0.734336 3.00752 1.08521 3.00752 1.49624C3.00752 1.77193 2.93734 2.02506 2.79699 2.25564C2.66165 2.4812 2.4812 2.66165 2.25564 2.79699C2.03008 2.93233 1.77945 3 1.50376 3Z" fill="black"/>
<path d="M7.5 3C7.08897 3 6.73559 2.85464 6.43985 2.56391C6.14411 2.26817 5.99624 1.91228 5.99624 1.49624C5.99624 1.08521 6.14411 0.734336 6.43985 0.443609C6.73559 0.14787 7.08897 0 7.5 0C7.91103 0 8.26441 0.14787 8.56015 0.443609C8.85589 0.734336 9.00376 1.08521 9.00376 1.49624C9.00376 1.77193 8.93359 2.02506 8.79323 2.25564C8.6579 2.4812 8.47744 2.66165 8.25188 2.79699C8.02632 2.93233 7.77569 3 7.5 3Z" fill="black"/>
<path d="M13.4962 3C13.0852 3 12.7318 2.85464 12.4361 2.56391C12.1404 2.26817 11.9925 1.91228 11.9925 1.49624C11.9925 1.08521 12.1404 0.734336 12.4361 0.443609C12.7318 0.14787 13.0852 0 13.4962 0C13.9073 0 14.2607 0.14787 14.5564 0.443609C14.8521 0.734336 15 1.08521 15 1.49624C15 1.77193 14.9298 2.02506 14.7895 2.25564C14.6541 2.4812 14.4737 2.66165 14.2481 2.79699C14.0226 2.93233 13.7719 3 13.4962 3Z" fill="black"/>
</svg>
