<svg width="151" height="30" viewBox="0 0 151 30" fill="none" xmlns="http://www.w3.org/2000/svg">
<circle cx="137" cy="16" r="14" fill="url(#paint0_linear_11_232)"/>
<path d="M10.321 27.9091V20.9375H10.1932C10.0341 21.2557 9.80398 21.5937 9.50284 21.9517C9.2017 22.304 8.80398 22.6051 8.30966 22.8551C7.81534 23.1051 7.19318 23.2301 6.44318 23.2301C5.41477 23.2301 4.49432 22.9659 3.68182 22.4375C2.86932 21.9091 2.22727 21.142 1.75568 20.1364C1.28409 19.1307 1.0483 17.9091 1.0483 16.4716C1.0483 15.017 1.28693 13.7898 1.7642 12.7898C2.24716 11.7841 2.89773 11.0256 3.71591 10.5142C4.53409 9.99716 5.44602 9.73864 6.4517 9.73864C7.21875 9.73864 7.84943 9.86932 8.34375 10.1307C8.83807 10.3864 9.23011 10.696 9.51989 11.0597C9.80966 11.4176 10.0341 11.7557 10.1932 12.0739H10.3807V9.90909H13.4148V27.9091H10.321ZM7.30398 20.6989C7.95739 20.6989 8.5142 20.5227 8.97443 20.1705C9.43466 19.8125 9.78409 19.3153 10.0227 18.679C10.2614 18.0426 10.3807 17.3011 10.3807 16.4545C10.3807 15.608 10.2614 14.8722 10.0227 14.2472C9.78977 13.6222 9.44318 13.1364 8.98295 12.7898C8.52841 12.4432 7.96875 12.2699 7.30398 12.2699C6.61648 12.2699 6.04261 12.4489 5.58239 12.8068C5.12216 13.1648 4.77557 13.6591 4.54261 14.2898C4.30966 14.9205 4.19318 15.642 4.19318 16.4545C4.19318 17.2727 4.30966 18.0028 4.54261 18.6449C4.78125 19.2812 5.13068 19.7841 5.59091 20.1534C6.05682 20.517 6.62784 20.6989 7.30398 20.6989ZM26.849 17.4943V9.90909H29.9342V23H26.9427V20.6733H26.8064C26.5109 21.4062 26.0251 22.0057 25.349 22.4716C24.6785 22.9375 23.8518 23.1705 22.8689 23.1705C22.0109 23.1705 21.2524 22.9801 20.5933 22.5994C19.9399 22.2131 19.4285 21.6534 19.0592 20.9205C18.6899 20.1818 18.5052 19.2898 18.5052 18.2443V9.90909H21.5905V17.767C21.5905 18.5966 21.8177 19.2557 22.2723 19.7443C22.7268 20.233 23.3234 20.4773 24.062 20.4773C24.5166 20.4773 24.9569 20.3665 25.3831 20.1449C25.8092 19.9233 26.1586 19.5938 26.4314 19.1562C26.7098 18.7131 26.849 18.1591 26.849 17.4943ZM35.0268 23V9.90909H38.112V23H35.0268ZM36.5779 8.05114C36.0893 8.05114 35.6688 7.8892 35.3166 7.56534C34.9643 7.23579 34.7882 6.84091 34.7882 6.38068C34.7882 5.91477 34.9643 5.51989 35.3166 5.19602C35.6688 4.86648 36.0893 4.7017 36.5779 4.7017C37.0722 4.7017 37.4927 4.86648 37.8393 5.19602C38.1916 5.51989 38.3677 5.91477 38.3677 6.38068C38.3677 6.84091 38.1916 7.23579 37.8393 7.56534C37.4927 7.8892 37.0722 8.05114 36.5779 8.05114ZM48.9148 23.2557C47.608 23.2557 46.4859 22.9688 45.5484 22.3949C44.6165 21.821 43.8978 21.0284 43.3921 20.017C42.8921 19 42.6421 17.8295 42.6421 16.5057C42.6421 15.1761 42.8978 14.0028 43.4091 12.9858C43.9205 11.9631 44.6421 11.1676 45.5739 10.5994C46.5114 10.0256 47.6194 9.73864 48.8978 9.73864C49.9603 9.73864 50.9006 9.93466 51.7188 10.3267C52.5427 10.7131 53.1989 11.2614 53.6876 11.9716C54.1762 12.6761 54.4546 13.5 54.5228 14.4432H51.5739C51.4546 13.8125 51.1705 13.2869 50.7216 12.8665C50.2785 12.4403 49.6847 12.2273 48.9404 12.2273C48.3097 12.2273 47.7557 12.3977 47.2785 12.7386C46.8012 13.0739 46.429 13.5568 46.162 14.1875C45.9006 14.8182 45.7699 15.5739 45.7699 16.4545C45.7699 17.3466 45.9006 18.1136 46.162 18.7557C46.4234 19.392 46.7898 19.8835 47.2614 20.2301C47.7387 20.571 48.2984 20.7415 48.9404 20.7415C49.3949 20.7415 49.8012 20.6562 50.1591 20.4858C50.5228 20.3097 50.8268 20.0568 51.0711 19.7273C51.3154 19.3977 51.483 18.9972 51.5739 18.5256H54.5228C54.4489 19.4517 54.1762 20.2727 53.7046 20.9886C53.233 21.6989 52.591 22.2557 51.7785 22.6591C50.966 23.0568 50.0114 23.2557 48.9148 23.2557ZM61.7887 18.892L61.7801 15.1676H62.2745L66.979 9.90909H70.5841L64.7972 16.3523H64.158L61.7887 18.892ZM58.9762 23V5.54545H62.0614V23H58.9762ZM67.1921 23L62.9307 17.0426L65.0103 14.8693L70.8824 23H67.1921ZM81.0972 9.90909V12.2955H73.5716V9.90909H81.0972ZM75.4295 6.77273H78.5148V19.0625C78.5148 19.4773 78.5773 19.7955 78.7023 20.017C78.833 20.233 79.0034 20.3807 79.2136 20.4602C79.4239 20.5398 79.6568 20.5795 79.9125 20.5795C80.1057 20.5795 80.2818 20.5653 80.4409 20.5369C80.6057 20.5085 80.7307 20.483 80.8159 20.4602L81.3358 22.8722C81.171 22.929 80.9352 22.9915 80.6284 23.0597C80.3273 23.1278 79.958 23.1676 79.5205 23.179C78.7477 23.2017 78.0517 23.0852 77.4324 22.8295C76.8131 22.5682 76.3216 22.1648 75.958 21.6193C75.6 21.0739 75.4239 20.392 75.4295 19.5739V6.77273ZM89.3645 23.2642C88.5349 23.2642 87.7878 23.1165 87.123 22.821C86.4639 22.5199 85.9412 22.0767 85.5548 21.4915C85.1741 20.9062 84.9838 20.1847 84.9838 19.3267C84.9838 18.5881 85.1201 17.9773 85.3929 17.4943C85.6656 17.0114 86.0378 16.625 86.5093 16.3352C86.9809 16.0455 87.5122 15.8267 88.1031 15.679C88.6997 15.5256 89.3162 15.4148 89.9525 15.3466C90.7196 15.267 91.3417 15.196 91.819 15.1335C92.2963 15.0653 92.6429 14.9631 92.8588 14.8267C93.0804 14.6847 93.1912 14.4659 93.1912 14.1705V14.1193C93.1912 13.4773 93.0008 12.9801 92.6201 12.6278C92.2395 12.2756 91.6912 12.0994 90.9753 12.0994C90.2196 12.0994 89.6201 12.2642 89.177 12.5938C88.7395 12.9233 88.444 13.3125 88.2906 13.7614L85.4099 13.3523C85.6372 12.5568 86.0122 11.892 86.5349 11.358C87.0576 10.8182 87.6968 10.4148 88.4525 10.1477C89.2082 9.875 90.0434 9.73864 90.9582 9.73864C91.5889 9.73864 92.2167 9.8125 92.8417 9.96023C93.4667 10.108 94.0378 10.3523 94.5548 10.6932C95.0718 11.0284 95.4866 11.4858 95.7991 12.0653C96.1173 12.6449 96.2764 13.3693 96.2764 14.2386V23H93.3105V21.2017H93.2082C93.0207 21.5653 92.7565 21.9062 92.4156 22.2244C92.0804 22.5369 91.6571 22.7898 91.1457 22.983C90.64 23.1705 90.0463 23.2642 89.3645 23.2642ZM90.1656 20.9972C90.7849 20.9972 91.3218 20.875 91.7764 20.6307C92.2309 20.3807 92.5804 20.0511 92.8247 19.642C93.0747 19.233 93.1997 18.7869 93.1997 18.304V16.7614C93.1031 16.8409 92.9383 16.9148 92.7054 16.983C92.4781 17.0511 92.2224 17.1108 91.9383 17.1619C91.6542 17.2131 91.373 17.2585 91.0946 17.2983C90.8162 17.3381 90.5747 17.3722 90.3701 17.4006C89.9099 17.4631 89.498 17.5653 89.1343 17.7074C88.7707 17.8494 88.4838 18.0483 88.2735 18.304C88.0633 18.554 87.9582 18.8778 87.9582 19.2756C87.9582 19.8438 88.1656 20.2727 88.5804 20.5625C88.9951 20.8523 89.5235 20.9972 90.1656 20.9972ZM111.645 13.3693L108.833 13.6761C108.753 13.392 108.614 13.125 108.415 12.875C108.222 12.625 107.961 12.4233 107.631 12.2699C107.302 12.1165 106.898 12.0398 106.421 12.0398C105.779 12.0398 105.239 12.179 104.802 12.4574C104.37 12.7358 104.157 13.0966 104.162 13.5398C104.157 13.9205 104.296 14.2301 104.58 14.4688C104.87 14.7074 105.347 14.9034 106.012 15.0568L108.245 15.5341C109.483 15.8011 110.404 16.2244 111.006 16.804C111.614 17.3835 111.921 18.142 111.927 19.0795C111.921 19.9034 111.679 20.6307 111.202 21.2614C110.73 21.8864 110.074 22.375 109.233 22.7273C108.392 23.0795 107.427 23.2557 106.336 23.2557C104.733 23.2557 103.444 22.9205 102.466 22.25C101.489 21.5739 100.907 20.6335 100.719 19.429L103.728 19.1392C103.864 19.7301 104.154 20.1761 104.597 20.4773C105.04 20.7784 105.617 20.929 106.327 20.929C107.06 20.929 107.648 20.7784 108.091 20.4773C108.54 20.1761 108.765 19.804 108.765 19.3608C108.765 18.9858 108.62 18.6761 108.33 18.4318C108.046 18.1875 107.603 18 107 17.8693L104.767 17.4006C103.512 17.1392 102.583 16.6989 101.98 16.0795C101.378 15.4545 101.08 14.6648 101.086 13.7102C101.08 12.9034 101.299 12.2045 101.742 11.6136C102.191 11.017 102.813 10.5568 103.608 10.233C104.409 9.90341 105.333 9.73864 106.378 9.73864C107.912 9.73864 109.12 10.0653 110 10.7188C110.887 11.3722 111.435 12.2557 111.645 13.3693ZM119.203 18.892L119.195 15.1676H119.689L124.393 9.90909H127.998L122.212 16.3523H121.572L119.203 18.892ZM116.391 23V5.54545H119.476V23H116.391ZM124.606 23L120.345 17.0426L122.425 14.8693L128.297 23H124.606ZM142.321 13.3693L139.509 13.6761C139.429 13.392 139.29 13.125 139.091 12.875C138.898 12.625 138.637 12.4233 138.307 12.2699C137.977 12.1165 137.574 12.0398 137.097 12.0398C136.455 12.0398 135.915 12.179 135.477 12.4574C135.046 12.7358 134.833 13.0966 134.838 13.5398C134.833 13.9205 134.972 14.2301 135.256 14.4688C135.546 14.7074 136.023 14.9034 136.688 15.0568L138.921 15.5341C140.159 15.8011 141.08 16.2244 141.682 16.804C142.29 17.3835 142.597 18.142 142.602 19.0795C142.597 19.9034 142.355 20.6307 141.878 21.2614C141.406 21.8864 140.75 22.375 139.909 22.7273C139.068 23.0795 138.102 23.2557 137.012 23.2557C135.409 23.2557 134.119 22.9205 133.142 22.25C132.165 21.5739 131.583 20.6335 131.395 19.429L134.404 19.1392C134.54 19.7301 134.83 20.1761 135.273 20.4773C135.716 20.7784 136.293 20.929 137.003 20.929C137.736 20.929 138.324 20.7784 138.767 20.4773C139.216 20.1761 139.441 19.804 139.441 19.3608C139.441 18.9858 139.296 18.6761 139.006 18.4318C138.722 18.1875 138.279 18 137.676 17.8693L135.443 17.4006C134.188 17.1392 133.259 16.6989 132.656 16.0795C132.054 15.4545 131.756 14.6648 131.762 13.7102C131.756 12.9034 131.975 12.2045 132.418 11.6136C132.867 11.017 133.489 10.5568 134.284 10.233C135.085 9.90341 136.009 9.73864 137.054 9.73864C138.588 9.73864 139.796 10.0653 140.676 10.7188C141.563 11.3722 142.111 12.2557 142.321 13.3693Z" fill="#21274A"/>
<defs>
<linearGradient id="paint0_linear_11_232" x1="137" y1="2" x2="137" y2="30" gradientUnits="userSpaceOnUse">
<stop stop-color="#FFE194"/>
<stop offset="1" stop-color="#FFD465"/>
</linearGradient>
</defs>
</svg>
